<svg width="20" height="20" viewBox="0 0 20 20" fill="none" xmlns="http://www.w3.org/2000/svg">
<path fill-rule="evenodd" clip-rule="evenodd" d="M15.0943 5.87146C15.9782 4.98751 17.4114 4.98751 18.2954 5.87146C19.1793 6.75542 19.1793 8.18859 18.2954 9.07254L14.3586 13.0093C14.3498 13.0181 14.3411 13.0268 14.3326 13.0353C14.117 13.251 13.9711 13.3969 13.8078 13.5243C13.6156 13.6742 13.4076 13.8027 13.1876 13.9076C13.0006 13.9967 12.8049 14.0619 12.5156 14.1583L10.7792 14.7371C10.3959 14.8649 9.97321 14.7651 9.68747 14.4793C9.40173 14.1936 9.30196 13.7709 9.42975 13.3876L9.54115 13.0534L9.99688 11.6862C10.0008 11.6744 10.0047 11.6627 10.0085 11.6512C10.1049 11.3619 10.1701 11.1662 10.2593 10.9792C10.3641 10.7592 10.4926 10.5512 10.6425 10.359C10.77 10.1957 10.9159 10.0498 11.1315 9.83423C11.1401 9.82566 11.1488 9.81698 11.1576 9.80818L15.0943 5.87146ZM17.4115 6.75535C17.0157 6.35955 16.374 6.35955 15.9782 6.75535L15.8267 6.90683C15.8349 6.93473 15.8443 6.96441 15.8551 6.9956C15.9335 7.22154 16.0823 7.52039 16.3644 7.80246C16.6464 8.08453 16.9453 8.23329 17.1712 8.31168C17.2024 8.3225 17.2321 8.33193 17.26 8.34015L17.4115 8.18866C17.8073 7.79286 17.8073 7.15114 17.4115 6.75535ZM16.3053 9.29479C16.0404 9.15564 15.7544 8.96028 15.4805 8.68634C15.2065 8.41241 15.0112 8.12638 14.872 7.86147L12.0414 10.6921C11.7905 10.943 11.7025 11.0325 11.6282 11.1278C11.5341 11.2484 11.4535 11.3789 11.3877 11.517C11.3357 11.6261 11.2949 11.7449 11.1827 12.0815L10.8492 13.0822L11.0846 13.3177L12.0853 12.9841C12.422 12.8719 12.5407 12.8311 12.6498 12.7792C12.7879 12.7133 12.9184 12.6327 13.039 12.5386C13.1343 12.4643 13.2239 12.3763 13.4748 12.1254L16.3053 9.29479Z" fill="#191B23"/>
<path fill-rule="evenodd" clip-rule="evenodd" d="M6.04166 10.8335C6.04166 10.4883 6.32148 10.2085 6.66666 10.2085H8.74999C9.09517 10.2085 9.37499 10.4883 9.37499 10.8335C9.37499 11.1787 9.09517 11.4585 8.74999 11.4585H6.66666C6.32148 11.4585 6.04166 11.1787 6.04166 10.8335Z" fill="#191B23"/>
<path fill-rule="evenodd" clip-rule="evenodd" d="M6.04166 7.5C6.04166 7.15482 6.32148 6.875 6.66666 6.875H12.0833C12.4285 6.875 12.7083 7.15482 12.7083 7.5C12.7083 7.84518 12.4285 8.125 12.0833 8.125H6.66666C6.32148 8.125 6.04166 7.84518 6.04166 7.5Z" fill="#191B23"/>
<path fill-rule="evenodd" clip-rule="evenodd" d="M6.04166 14.1665C6.04166 13.8213 6.32148 13.5415 6.66666 13.5415H7.91666C8.26183 13.5415 8.54166 13.8213 8.54166 14.1665C8.54166 14.5117 8.26183 14.7915 7.91666 14.7915H6.66666C6.32148 14.7915 6.04166 14.5117 6.04166 14.1665Z" fill="#191B23"/>
<path fill-rule="evenodd" clip-rule="evenodd" d="M9.11965 1.0415H10.8803C12.4118 1.04149 13.6248 1.04148 14.5742 1.16912C15.5512 1.30047 16.342 1.57724 16.9656 2.20087C17.2097 2.44495 17.2097 2.84068 16.9656 3.08476C16.7216 3.32883 16.3258 3.32883 16.0817 3.08476C15.7291 2.73208 15.246 2.52069 14.4076 2.40797C13.5512 2.29283 12.4224 2.2915 10.8333 2.2915H9.16667C7.57765 2.2915 6.44876 2.29283 5.59237 2.40797C4.75397 2.52069 4.27093 2.73208 3.91825 3.08476C3.56558 3.43743 3.35419 3.92047 3.24147 4.75888C3.12633 5.61526 3.125 6.74415 3.125 8.33317V11.6665C3.125 13.2555 3.12633 14.3844 3.24147 15.2408C3.35419 16.0792 3.56558 16.5622 3.91825 16.9149C4.27093 17.2676 4.75397 17.479 5.59237 17.5917C6.44876 17.7068 7.57765 17.7082 9.16667 17.7082H10.8333C12.4224 17.7082 13.5512 17.7068 14.4076 17.5917C15.246 17.479 15.7291 17.2676 16.0817 16.9149C16.6617 16.335 16.8373 15.4339 16.8678 13.3241C16.8728 12.979 17.1567 12.7032 17.5018 12.7082C17.8469 12.7132 18.1227 12.9971 18.1177 13.3422C18.0884 15.3651 17.9575 16.8069 16.9656 17.7988C16.342 18.4224 15.5512 18.6992 14.5742 18.8306C13.6248 18.9582 12.4118 18.9582 10.8803 18.9582H9.11966C7.58819 18.9582 6.37516 18.9582 5.42581 18.8306C4.4488 18.6992 3.65801 18.4224 3.03437 17.7988C2.41073 17.1752 2.13397 16.3844 2.00261 15.4074C1.87498 14.458 1.87499 13.245 1.875 11.7135V8.28616C1.87499 6.75469 1.87498 5.54166 2.00261 4.59232C2.13397 3.6153 2.41073 2.82451 3.03437 2.20087C3.65801 1.57724 4.4488 1.30047 5.42581 1.16912C6.37516 1.04148 7.58819 1.04149 9.11965 1.0415Z" fill="#191B23"/>
</svg>
