<svg width="64" height="64" viewBox="0 0 64 64" fill="none" xmlns="http://www.w3.org/2000/svg">
<path fill-rule="evenodd" clip-rule="evenodd" d="M41.781 18.6665C41.781 17.5619 42.6765 16.6665 43.781 16.6665H58.6668C59.7713 16.6665 60.6668 17.5619 60.6668 18.6665V33.4554C60.6668 34.56 59.7713 35.4554 58.6668 35.4554C57.5622 35.4554 56.6668 34.56 56.6668 33.4554V23.4741L40.3045 39.7366C39.054 40.9797 37.9761 42.0511 36.9972 42.7937C35.9479 43.5898 34.782 44.1919 33.3468 44.1918C31.9116 44.1916 30.7459 43.5892 29.6967 42.7929C28.718 42.0501 27.6404 40.9784 26.3902 39.7351L25.6588 39.0079C24.2878 37.6445 23.3988 36.7665 22.6586 36.2048C21.9647 35.6782 21.6403 35.6194 21.4254 35.6195C21.2106 35.6196 20.8862 35.6786 20.1926 36.2057C19.4528 36.768 18.5645 37.6466 17.1945 39.0109L6.74467 49.417C5.96199 50.1964 4.69566 50.1938 3.91625 49.4111C3.13684 48.6284 3.1395 47.3621 3.92218 46.5827L14.465 36.084C15.7155 34.8386 16.7932 33.7652 17.7721 33.0212C18.8215 32.2236 19.9877 31.62 21.4239 31.6195C22.8602 31.619 24.0269 32.2217 25.0768 33.0185C26.0562 33.7618 27.1348 34.8344 28.3861 36.0788L29.1175 36.8061C30.4874 38.1683 31.3755 39.0454 32.115 39.6067C32.8083 40.1329 33.1325 40.1918 33.3473 40.1918C33.562 40.1918 33.8862 40.133 34.5796 39.607C35.3193 39.0459 36.2076 38.1689 37.5778 36.8071L53.8174 20.6665H43.781C42.6765 20.6665 41.781 19.7711 41.781 18.6665Z" fill="#191B23"/>
</svg>
