<svg width="64" height="64" viewBox="0 0 64 64" fill="none" xmlns="http://www.w3.org/2000/svg">
<path fill-rule="evenodd" clip-rule="evenodd" d="M25.2383 7.52153C29.5655 5.49282 34.4343 5.49282 38.7615 7.52153L56.6047 15.8868C59.4108 17.2024 60.6667 20.0593 60.6667 22.6667C60.6667 25.2742 59.4108 28.1311 56.6047 29.4466L38.7617 37.8118C34.4345 39.8405 29.5658 39.8405 25.2385 37.8118L7.39529 29.4465C4.58918 28.1309 3.33333 25.2741 3.33334 22.6666C3.33334 20.0591 4.5892 17.2023 7.3953 15.8867L25.2383 7.52153ZM37.0635 11.1433C33.8121 9.61891 30.1877 9.61891 26.9362 11.1433L9.09325 19.5084C8.01811 20.0125 7.33334 21.2149 7.33334 22.6666C7.33333 24.1184 8.0181 25.3207 9.09324 25.8248L26.9365 34.1901C30.1879 35.7144 33.8123 35.7144 37.0638 34.1901L54.9068 25.8249C55.9819 25.3208 56.6667 24.1185 56.6667 22.6667C56.6667 21.215 55.9819 20.0126 54.9068 19.5086L37.0635 11.1433Z" fill="#191B23"/>
<path fill-rule="evenodd" clip-rule="evenodd" d="M5.33334 20.6665C6.43791 20.6665 7.33334 21.5619 7.33334 22.6665V37.3332C7.33334 38.4377 6.43791 39.3332 5.33334 39.3332C4.22877 39.3332 3.33334 38.4377 3.33334 37.3332V22.6665C3.33334 21.5619 4.22877 20.6665 5.33334 20.6665Z" fill="#191B23"/>
<path fill-rule="evenodd" clip-rule="evenodd" d="M13.3333 28.6665C14.4379 28.6665 15.3333 29.5619 15.3333 30.6665V44.3343C15.3333 46.369 16.3433 48.1762 17.9965 49.0917L17.0276 50.8413L17.9965 49.0917C19.9075 50.1501 22.3648 51.3929 24.9025 52.3665C27.4729 53.3526 29.9677 53.9998 32 53.9998C34.0323 53.9998 36.5271 53.3526 39.0975 52.3665C41.6352 51.3929 44.0925 50.1501 46.0035 49.0917C47.6567 48.1762 48.6667 46.369 48.6667 44.3343V30.6665C48.6667 29.5619 49.5621 28.6665 50.6667 28.6665C51.7712 28.6665 52.6667 29.5619 52.6667 30.6665V44.3343C52.6667 47.6758 50.9913 50.9019 47.9414 52.591C45.9368 53.7011 43.3024 55.0375 40.5302 56.1011C37.7907 57.1521 34.7571 57.9998 32 57.9998C29.2429 57.9998 26.2094 57.1521 23.4698 56.1011C20.6976 55.0375 18.0632 53.7011 16.0586 52.591C13.0087 50.9019 11.3333 47.6758 11.3333 44.3343V30.6665C11.3333 29.5619 12.2288 28.6665 13.3333 28.6665Z" fill="#191B23"/>
</svg>
