<svg width="20" height="20" viewBox="0 0 20 20" fill="none" xmlns="http://www.w3.org/2000/svg">
<path fill-rule="evenodd" clip-rule="evenodd" d="M18.9583 9.99984C18.9583 5.05229 14.9475 1.0415 9.99998 1.0415C5.05243 1.0415 1.04165 5.05229 1.04165 9.99984C1.04165 11.4318 1.37807 12.7869 1.97675 13.9889C2.06609 14.1682 2.08504 14.3514 2.04382 14.5055L1.54748 16.3605C1.20771 17.6304 2.36945 18.7921 3.63931 18.4523L5.49435 17.956C5.64843 17.9148 5.83157 17.9337 6.01094 18.0231C7.21292 18.6217 8.56806 18.9582 9.99998 18.9582C14.9475 18.9582 18.9583 14.9474 18.9583 9.99984ZM9.99998 2.2915C14.2572 2.2915 17.7083 5.74264 17.7083 9.99984C17.7083 14.257 14.2572 17.7082 9.99998 17.7082C8.76577 17.7082 7.60098 17.4186 6.56824 16.9042C6.15373 16.6977 5.65809 16.6182 5.17125 16.7485L3.31622 17.2448C2.97553 17.336 2.66384 17.0243 2.755 16.6836L3.25134 14.8286C3.3816 14.3417 3.3021 13.8461 3.09564 13.4316C2.58125 12.3988 2.29165 11.2341 2.29165 9.99984C2.29165 5.74264 5.74278 2.2915 9.99998 2.2915Z" fill="#191B23"/>
<path fill-rule="evenodd" clip-rule="evenodd" d="M12.9419 7.89155C13.186 8.13563 13.186 8.53136 12.9419 8.77544L9.60861 12.1088C9.36805 12.3493 8.97926 12.3533 8.73384 12.1177L7.06717 10.5177C6.81816 10.2786 6.81009 9.883 7.04913 9.634C7.28818 9.38499 7.68383 9.37692 7.93283 9.61596L9.15774 10.7919L12.0581 7.89155C12.3021 7.64748 12.6979 7.64748 12.9419 7.89155Z" fill="#191B23"/>
</svg>
