<svg width="20" height="20" viewBox="0 0 20 20" fill="none" xmlns="http://www.w3.org/2000/svg">
<path d="M9.05107 2.80263C9.47329 2.04521 9.6844 1.6665 10 1.6665C10.3156 1.6665 10.5267 2.04521 10.949 2.80263L11.0582 2.99858C11.1782 3.21382 11.2382 3.32143 11.3317 3.39244C11.4252 3.46345 11.5417 3.4898 11.7747 3.54252L11.9868 3.59051C12.8067 3.77602 13.2167 3.86878 13.3142 4.18241C13.4117 4.49605 13.1323 4.82286 12.5733 5.47648L12.4287 5.64558C12.2699 5.83132 12.1905 5.92418 12.1547 6.03908C12.119 6.15397 12.131 6.27787 12.155 6.52569L12.1769 6.7513C12.2614 7.62337 12.3036 8.0594 12.0483 8.25324C11.793 8.44708 11.4091 8.27035 10.6415 7.91689L10.4429 7.82545C10.2247 7.72501 10.1156 7.67479 10 7.67479C9.8844 7.67479 9.77533 7.72501 9.55718 7.82545L9.35858 7.91689C8.59091 8.27035 8.20708 8.44708 7.95174 8.25324C7.69639 8.0594 7.73865 7.62337 7.82315 6.7513L7.84501 6.52569C7.86903 6.27787 7.88104 6.15397 7.84531 6.03908C7.80958 5.92418 7.73016 5.83132 7.57133 5.64558L7.42672 5.47648C6.86777 4.82286 6.5883 4.49605 6.68583 4.18241C6.78336 3.86878 7.19331 3.77602 8.0132 3.59051L8.22532 3.54252C8.4583 3.4898 8.5748 3.46345 8.66833 3.39244C8.76187 3.32143 8.82186 3.21382 8.94184 2.99858L9.05107 2.80263Z" stroke="#191B23" stroke-linecap="round"/>
<path d="M16.1922 6.40156C16.4033 6.02285 16.5089 5.8335 16.6667 5.8335C16.8245 5.8335 16.93 6.02285 17.1411 6.40156L17.1958 6.49953C17.2557 6.60715 17.2857 6.66096 17.3325 6.69646C17.3793 6.73197 17.4375 6.74515 17.554 6.7715L17.6601 6.7955C18.07 6.88826 18.275 6.93463 18.3238 7.09145C18.3725 7.24827 18.2328 7.41167 17.9533 7.73848L17.881 7.82303C17.8016 7.9159 17.7619 7.96234 17.744 8.01978C17.7262 8.07723 17.7322 8.13918 17.7442 8.26309L17.7551 8.3759C17.7974 8.81193 17.8185 9.02995 17.6908 9.12687C17.5631 9.22379 17.3712 9.13542 16.9874 8.95869L16.8881 8.91297C16.779 8.86275 16.7245 8.83764 16.6667 8.83764C16.6089 8.83764 16.5543 8.86275 16.4452 8.91297L16.3459 8.95869C15.9621 9.13542 15.7702 9.22379 15.6425 9.12687C15.5149 9.02995 15.536 8.81193 15.5782 8.3759L15.5892 8.26309C15.6012 8.13918 15.6072 8.07723 15.5893 8.01978C15.5714 7.96234 15.5317 7.9159 15.4523 7.82303L15.38 7.73848C15.1005 7.41167 14.9608 7.24827 15.0096 7.09145C15.0583 6.93463 15.2633 6.88826 15.6733 6.7955L15.7793 6.7715C15.8958 6.74515 15.9541 6.73197 16.0008 6.69646C16.0476 6.66096 16.0776 6.60715 16.1376 6.49954L16.1922 6.40156Z" stroke="#191B23" stroke-linecap="round"/>
<path d="M2.85888 6.40156C3.06999 6.02285 3.17554 5.8335 3.33335 5.8335C3.49116 5.8335 3.59672 6.02285 3.80783 6.40156L3.86244 6.49953C3.92243 6.60715 3.95243 6.66096 3.9992 6.69646C4.04597 6.73197 4.10421 6.74515 4.22071 6.7715L4.32676 6.7955C4.73671 6.88826 4.94168 6.93463 4.99045 7.09145C5.03922 7.24827 4.89948 7.41167 4.62 7.73848L4.5477 7.82303C4.46828 7.9159 4.42857 7.96234 4.41071 8.01978C4.39285 8.07723 4.39885 8.13918 4.41086 8.26309L4.42179 8.3759C4.46404 8.81193 4.48517 9.02995 4.3575 9.12687C4.22982 9.22379 4.03791 9.13542 3.65407 8.95869L3.55477 8.91297C3.4457 8.86275 3.39116 8.83764 3.33335 8.83764C3.27554 8.83764 3.22101 8.86275 3.11193 8.91297L3.01263 8.95869C2.6288 9.13542 2.43688 9.22379 2.30921 9.12687C2.18154 9.02995 2.20267 8.81193 2.24492 8.3759L2.25585 8.26309C2.26786 8.13918 2.27386 8.07723 2.256 8.01978C2.23813 7.96234 2.19842 7.9159 2.11901 7.82303L2.0467 7.73848C1.76723 7.41167 1.62749 7.24827 1.67626 7.09145C1.72502 6.93463 1.93 6.88826 2.33994 6.7955L2.446 6.7715C2.5625 6.74515 2.62074 6.73197 2.66751 6.69646C2.71428 6.66096 2.74427 6.60715 2.80426 6.49954L2.85888 6.40156Z" stroke="#191B23" stroke-linecap="round"/>
<path d="M4.16669 16.9902H6.04997C6.89235 16.9902 7.7438 17.0779 8.56363 17.2468C10.0138 17.5456 11.5407 17.5818 13.0058 17.3446C13.7282 17.2277 14.4384 17.0489 15.0813 16.7386C15.6616 16.4585 16.3725 16.0637 16.85 15.6214C17.3268 15.1798 17.8233 14.4571 18.1758 13.8921C18.478 13.4077 18.3318 12.8133 17.8538 12.4524C17.3228 12.0514 16.5348 12.0515 16.0039 12.4526L14.4979 13.5902C13.9142 14.0311 13.2767 14.437 12.5172 14.5581C12.4259 14.5727 12.3302 14.5859 12.2303 14.5975M12.2303 14.5975C12.2003 14.601 12.1698 14.6043 12.139 14.6075M12.2303 14.5975C12.3518 14.5715 12.4725 14.4965 12.5857 14.3978C13.1217 13.9299 13.1556 13.1415 12.6905 12.6191C12.5826 12.4979 12.4563 12.3968 12.3159 12.3131C9.9848 10.9227 6.35787 11.9817 4.16669 13.5356M12.2303 14.5975C12.1999 14.604 12.1694 14.6075 12.139 14.6075M12.139 14.6075C11.7029 14.6522 11.1927 14.6638 10.6265 14.6104" stroke="#191B23" stroke-linecap="round"/>
<rect x="1.66669" y="11.6665" width="2.5" height="6.66667" rx="1.25" stroke="#191B23" stroke-linecap="round"/>
</svg>
