<svg width="20" height="20" viewBox="0 0 20 20" fill="none" xmlns="http://www.w3.org/2000/svg">
<path fill-rule="evenodd" clip-rule="evenodd" d="M13.6616 1.68419L13.717 1.69903C14.6332 1.94451 15.3592 2.13904 15.9302 2.34532C16.5143 2.55633 16.9907 2.7977 17.3831 3.16523C17.9545 3.7004 18.3543 4.393 18.5321 5.15543C18.6542 5.67903 18.6251 6.21222 18.5157 6.82358C18.4089 7.42126 18.2143 8.14725 17.9688 9.06338L17.5226 10.7287C17.2772 11.6448 17.0826 12.3708 16.8763 12.9419C16.6653 13.526 16.424 14.0023 16.0564 14.3947C15.5213 14.9661 14.8287 15.366 14.0662 15.5438C13.9639 15.5676 13.8606 15.5859 13.7557 15.5988C13.2783 15.6577 12.7797 15.6051 12.2131 15.4924C11.6532 15.3811 10.9807 15.2009 10.1507 14.9785L10.1029 14.9657C9.18672 14.7202 8.4607 14.5257 7.88966 14.3194C7.30554 14.1084 6.82922 13.867 6.43681 13.4995C5.86542 12.9643 5.46555 12.2717 5.28777 11.5093C5.16569 10.9857 5.19481 10.4525 5.30413 9.84112C5.41101 9.24344 5.60554 8.51743 5.85103 7.60129L6.29009 5.96271C6.36231 5.69317 6.42984 5.44114 6.49393 5.20649C6.86345 3.85368 7.14949 2.92548 7.76343 2.26998C8.29861 1.69858 8.9912 1.29871 9.75363 1.12093C10.2772 0.998846 10.8104 1.02797 11.4218 1.13729C12.0195 1.24417 12.7455 1.4387 13.6616 1.68419ZM11.2018 2.36777C10.6702 2.27273 10.327 2.27076 10.0375 2.33828C9.51582 2.45991 9.04193 2.73351 8.67576 3.12447C8.31234 3.51249 8.0887 4.11194 7.69976 5.53586C7.63653 5.76733 7.56973 6.01663 7.49722 6.28724L7.06586 7.89711C6.8113 8.84712 6.63103 9.52194 6.53461 10.0611C6.43957 10.5927 6.4376 10.9359 6.50512 11.2254C6.62675 11.7471 6.90035 12.221 7.2913 12.5871C7.50831 12.7904 7.80649 12.9603 8.31435 13.1437C8.82953 13.3298 9.50407 13.5111 10.4541 13.7657C11.3086 13.9947 11.9419 14.164 12.4569 14.2664C12.9696 14.3684 13.3175 14.3934 13.6027 14.3582C13.6647 14.3506 13.7243 14.34 13.7824 14.3264C14.3041 14.2048 14.7779 13.9312 15.1441 13.5402C15.3473 13.3232 15.5172 13.025 15.7007 12.5172C15.8868 12.002 16.0681 11.3275 16.3226 10.3775L16.754 8.76759C17.0086 7.81758 17.1888 7.14276 17.2853 6.60355C17.3803 6.07201 17.3823 5.72883 17.3148 5.43928C17.1931 4.91761 16.9195 4.44373 16.5286 4.07756C16.3116 3.87432 16.0134 3.70442 15.5055 3.52096C14.9903 3.33486 14.3158 3.15357 13.3658 2.89902C12.4158 2.64446 11.741 2.46419 11.2018 2.36777Z" fill="#191B23"/>
<path fill-rule="evenodd" clip-rule="evenodd" d="M7.25331 5.97632C6.96272 6.05145 6.64364 6.13694 6.28742 6.23239C5.33741 6.48694 4.66287 6.66823 4.14769 6.85434C3.63984 7.03779 3.34165 7.20769 3.12465 7.41093C2.73369 7.7771 2.4601 8.25098 2.33846 8.77265C2.27095 9.0622 2.27291 9.40538 2.36796 9.93692C2.46438 10.4761 2.64465 11.151 2.8992 12.101L3.33057 13.7108C3.58512 14.6608 3.76641 15.3354 3.95251 15.8506C4.13597 16.3584 4.30586 16.6566 4.50911 16.8736C4.87528 17.2646 5.34916 17.5382 5.87082 17.6598C6.16037 17.7273 6.50356 17.7253 7.0351 17.6303C7.57431 17.5339 8.24913 17.3536 9.19914 17.0991C10.1491 16.8445 10.8237 16.6632 11.3389 16.4771C11.8467 16.2937 12.1449 16.1238 12.3619 15.9205C12.6957 15.6079 12.9439 15.2168 13.085 14.7845L14.2733 15.1726C14.067 15.8044 13.7042 16.376 13.2164 16.8328C12.824 17.2004 12.3477 17.4417 11.7636 17.6528C11.1925 17.859 10.4665 18.0536 9.55033 18.299L9.49494 18.3139C8.57881 18.5594 7.85281 18.7539 7.25513 18.8608C6.64377 18.9701 6.11057 18.9992 5.58698 18.8771C4.82455 18.6994 4.13195 18.2995 3.59678 17.7281C3.22925 17.3357 2.98787 16.8594 2.77687 16.2753C2.57059 15.7042 2.37606 14.9782 2.13058 14.0621L1.68437 12.3968C1.43889 11.4806 1.24435 10.7546 1.13747 10.157C1.02815 9.54559 0.999029 9.0124 1.12111 8.4888C1.29889 7.72637 1.69876 7.03377 2.27016 6.4986C2.66256 6.13107 3.13888 5.8897 3.723 5.67869C4.29404 5.47241 5.02005 5.27788 5.93619 5.03241L5.96578 5.02448C6.31988 4.9296 6.64398 4.84276 6.9404 4.76611L7.25331 5.97632Z" fill="#191B23"/>
<path fill-rule="evenodd" clip-rule="evenodd" d="M9.21034 8.17157C9.29968 7.83816 9.64239 7.64029 9.9758 7.72963L14.0005 8.80805C14.3339 8.89738 14.5318 9.2401 14.4424 9.57351C14.3531 9.90693 14.0104 10.1048 13.677 10.0155L9.65228 8.93704C9.31886 8.8477 9.121 8.50499 9.21034 8.17157Z" fill="#191B23"/>
<path fill-rule="evenodd" clip-rule="evenodd" d="M8.56297 10.5861C8.65231 10.2527 8.99502 10.0548 9.32844 10.1442L11.7433 10.7912C12.0767 10.8806 12.2745 11.2233 12.1852 11.5567C12.0959 11.8901 11.7531 12.088 11.4197 11.9986L9.00491 11.3516C8.67149 11.2623 8.47363 10.9195 8.56297 10.5861Z" fill="#191B23"/>
</svg>
