<svg width="64" height="64" viewBox="0 0 64 64" fill="none" xmlns="http://www.w3.org/2000/svg">
<path d="M28.9634 8.9691C30.3145 6.54536 30.99 5.3335 32 5.3335C33.01 5.3335 33.6855 6.54536 35.0366 8.96909L35.3862 9.59614C35.7701 10.2849 35.9621 10.6293 36.2614 10.8565C36.5607 11.0837 36.9335 11.1681 37.679 11.3367L38.3578 11.4903C40.9815 12.084 42.2933 12.3808 42.6054 13.3844C42.9175 14.388 42.0232 15.4338 40.2346 17.5254L39.7718 18.0665C39.2635 18.6609 39.0094 18.9581 38.8951 19.3257C38.7807 19.6934 38.8192 20.0899 38.896 20.8829L38.966 21.6048C39.2364 24.3955 39.3716 25.7908 38.5545 26.4111C37.7374 27.0313 36.5091 26.4658 34.0526 25.3347L33.4171 25.0421C32.719 24.7207 32.37 24.56 32 24.56C31.63 24.56 31.281 24.7207 30.5829 25.0421L29.9474 25.3347C27.4908 26.4658 26.2626 27.0313 25.4455 26.4111C24.6284 25.7908 24.7636 24.3955 25.034 21.6049L25.104 20.8829C25.1808 20.0899 25.2192 19.6934 25.1049 19.3257C24.9906 18.9581 24.7364 18.6609 24.2282 18.0665L23.7654 17.5254C21.9768 15.4338 21.0825 14.388 21.3946 13.3844C21.7067 12.3808 23.0185 12.084 25.6422 11.4903L26.3209 11.3367C27.0665 11.1681 27.4393 11.0837 27.7386 10.8565C28.0379 10.6293 28.2299 10.2849 28.6138 9.59615L28.9634 8.9691Z" stroke="#191B23" stroke-width="2.5" stroke-linecap="round"/>
<path d="M51.815 20.4843C52.4906 19.2724 52.8283 18.6665 53.3333 18.6665C53.8383 18.6665 54.1761 19.2724 54.8516 20.4843L55.0264 20.7978C55.2184 21.1422 55.3144 21.3144 55.464 21.428C55.6137 21.5416 55.8001 21.5838 56.1729 21.6681L56.5122 21.7449C57.8241 22.0417 58.48 22.1901 58.636 22.692C58.7921 23.1938 58.3449 23.7167 57.4506 24.7625L57.2192 25.033C56.9651 25.3302 56.838 25.4788 56.7809 25.6626C56.7237 25.8464 56.7429 26.0447 56.7813 26.4412L56.8163 26.8022C56.9515 28.1975 57.0191 28.8951 56.6106 29.2053C56.202 29.5154 55.5879 29.2327 54.3596 28.6671L54.0419 28.5208C53.6928 28.3601 53.5183 28.2798 53.3333 28.2798C53.1483 28.2798 52.9738 28.3601 52.6248 28.5208L52.307 28.6671C51.0788 29.2327 50.4646 29.5154 50.0561 29.2053C49.6475 28.8951 49.7151 28.1975 49.8503 26.8022L49.8853 26.4412C49.9237 26.0447 49.943 25.8464 49.8858 25.6626C49.8286 25.4788 49.7016 25.3302 49.4474 25.033L49.2161 24.7625C48.3217 23.7167 47.8746 23.1938 48.0306 22.692C48.1867 22.1901 48.8426 22.0417 50.1544 21.7449L50.4938 21.6681C50.8666 21.5838 51.053 21.5416 51.2026 21.428C51.3523 21.3144 51.4483 21.1422 51.6402 20.7978L51.815 20.4843Z" stroke="#191B23" stroke-width="2.5" stroke-linecap="round"/>
<path d="M9.14836 20.4843C9.8239 19.2724 10.1617 18.6665 10.6667 18.6665C11.1717 18.6665 11.5094 19.2724 12.185 20.4843L12.3598 20.7978C12.5517 21.1422 12.6477 21.3144 12.7974 21.428C12.947 21.5416 13.1334 21.5838 13.5062 21.6681L13.8456 21.7449C15.1574 22.0417 15.8133 22.1901 15.9694 22.692C16.1254 23.1938 15.6783 23.7167 14.784 24.7625L14.5526 25.033C14.2984 25.3302 14.1714 25.4788 14.1142 25.6626C14.057 25.8464 14.0763 26.0447 14.1147 26.4412L14.1497 26.8022C14.2849 28.1975 14.3525 28.8951 13.9439 29.2053C13.5354 29.5154 12.9212 29.2327 11.693 28.6671L11.3752 28.5208C11.0262 28.3601 10.8517 28.2798 10.6667 28.2798C10.4817 28.2798 10.3072 28.3601 9.95813 28.5208L9.64036 28.6671C8.4121 29.2327 7.79796 29.5154 7.38942 29.2053C6.98087 28.8951 7.04847 28.1975 7.18368 26.8022L7.21866 26.4412C7.25708 26.0447 7.27629 25.8464 7.21913 25.6626C7.16196 25.4788 7.0349 25.3302 6.78076 25.033L6.54939 24.7625C5.65507 23.7167 5.20791 23.1938 5.36396 22.692C5.52001 22.1901 6.17593 22.0417 7.48776 21.7449L7.82714 21.6681C8.19992 21.5838 8.38631 21.5416 8.53597 21.428C8.68563 21.3144 8.78162 21.1422 8.97358 20.7978L9.14836 20.4843Z" stroke="#191B23" stroke-width="2.5" stroke-linecap="round"/>
<path d="M13.3333 54.3692H19.3598C22.0555 54.3692 24.7801 54.65 27.4035 55.1905C32.0442 56.1466 36.9303 56.2624 41.6185 55.5035C43.9301 55.1293 46.2028 54.5572 48.26 53.5642C50.117 52.6679 52.3918 51.4045 53.9198 49.9893C55.4456 48.5761 57.0346 46.2633 58.1625 44.4555C59.1296 42.9053 58.6618 41.0033 57.1321 39.8483C55.4328 38.5652 52.9113 38.5655 51.2123 39.8489L46.3931 43.4893C44.5254 44.9002 42.4853 46.1989 40.0549 46.5866C39.7627 46.6332 39.4565 46.6757 39.137 46.7127M39.137 46.7127C39.0408 46.7238 38.9434 46.7345 38.8448 46.7446M39.137 46.7127C39.5257 46.6294 39.9118 46.3896 40.274 46.0735C41.9892 44.5764 42.0977 42.0535 40.6095 40.3818C40.2642 39.994 39.8601 39.6705 39.4108 39.4026C31.9513 34.9534 20.3451 38.342 13.3333 43.3146M39.137 46.7127C39.0396 46.7335 38.9422 46.7446 38.8448 46.7446M38.8448 46.7446C37.4492 46.8879 35.8164 46.9249 34.0047 46.7538" stroke="#191B23" stroke-width="2.5" stroke-linecap="round"/>
<rect x="5.33334" y="37.3335" width="8" height="21.3333" rx="1.5" stroke="#191B23" stroke-width="2.5" stroke-linecap="round"/>
</svg>
