<svg width="32" height="32" viewBox="0 0 32 32" fill="none" xmlns="http://www.w3.org/2000/svg">
<path d="M14.4817 4.48479C15.1572 3.27293 15.495 2.66699 16 2.66699C16.505 2.66699 16.8428 3.27293 17.5183 4.48479L17.6931 4.79832C17.885 5.14269 17.981 5.31488 18.1307 5.42849C18.2803 5.5421 18.4667 5.58427 18.8395 5.66862L19.1789 5.74541C20.4907 6.04222 21.1466 6.19063 21.3027 6.69245C21.4587 7.19427 21.0116 7.71716 20.1173 8.76295L19.8859 9.03351C19.6318 9.33069 19.5047 9.47928 19.4475 9.66311C19.3904 9.84693 19.4096 10.0452 19.448 10.4417L19.483 10.8027C19.6182 12.198 19.6858 12.8956 19.2772 13.2058C18.8687 13.5159 18.2546 13.2331 17.0263 12.6676L16.7085 12.5213C16.3595 12.3606 16.185 12.2802 16 12.2802C15.815 12.2802 15.6405 12.3606 15.2914 12.5213L14.9737 12.6676C13.7454 13.2331 13.1313 13.5159 12.7227 13.2058C12.3142 12.8956 12.3818 12.198 12.517 10.8027L12.552 10.4417C12.5904 10.0452 12.6096 9.84693 12.5524 9.66311C12.4953 9.47928 12.3682 9.33069 12.1141 9.03351L11.8827 8.76295C10.9884 7.71716 10.5412 7.19427 10.6973 6.69245C10.8533 6.19063 11.5092 6.04222 12.8211 5.74541L13.1605 5.66862C13.5332 5.58427 13.7196 5.5421 13.8693 5.42849C14.019 5.31488 14.1149 5.14269 14.3069 4.79832L14.4817 4.48479Z" stroke="white" stroke-width="1.5" stroke-linecap="round"/>
<path d="M25.9075 10.2419C26.2453 9.63597 26.4142 9.33301 26.6667 9.33301C26.9192 9.33301 27.0881 9.63597 27.4258 10.2419L27.5132 10.3987C27.6092 10.5709 27.6572 10.657 27.732 10.7138C27.8068 10.7706 27.9 10.7916 28.0864 10.8338L28.2561 10.8722C28.912 11.0206 29.24 11.0948 29.318 11.3457C29.396 11.5966 29.1725 11.8581 28.7253 12.381L28.6096 12.5163C28.4826 12.6649 28.419 12.7392 28.3904 12.8311C28.3619 12.923 28.3715 13.0221 28.3907 13.2204L28.4082 13.4008C28.4758 14.0985 28.5096 14.4473 28.3053 14.6024C28.101 14.7575 27.794 14.6161 27.1798 14.3333L27.0209 14.2602C26.8464 14.1798 26.7592 14.1396 26.6667 14.1396C26.5742 14.1396 26.4869 14.1798 26.3124 14.2602L26.1535 14.3333C25.5394 14.6161 25.2323 14.7575 25.028 14.6024C24.8238 14.4473 24.8576 14.0985 24.9252 13.4008L24.9427 13.2204C24.9619 13.0221 24.9715 12.923 24.9429 12.8311C24.9143 12.7392 24.8508 12.6649 24.7237 12.5163L24.608 12.381C24.1609 11.8581 23.9373 11.5966 24.0153 11.3457C24.0933 11.0948 24.4213 11.0206 25.0772 10.8722L25.2469 10.8338C25.4333 10.7916 25.5265 10.7706 25.6013 10.7138C25.6761 10.657 25.7241 10.5709 25.8201 10.3987L25.9075 10.2419Z" stroke="white" stroke-width="1.5" stroke-linecap="round"/>
<path d="M4.57417 10.2419C4.91194 9.63597 5.08083 9.33301 5.33332 9.33301C5.58582 9.33301 5.75471 9.63597 6.09248 10.2419L6.17987 10.3987C6.27585 10.5709 6.32384 10.657 6.39867 10.7138C6.4735 10.7706 6.5667 10.7916 6.75309 10.8338L6.92278 10.8722C7.57869 11.0206 7.90665 11.0948 7.98468 11.3457C8.0627 11.5966 7.83912 11.8581 7.39196 12.381L7.27628 12.5163C7.14921 12.6649 7.08568 12.7392 7.05709 12.8311C7.02851 12.923 7.03812 13.0221 7.05733 13.2204L7.07482 13.4008C7.14242 14.0985 7.17622 14.4473 6.97195 14.6024C6.76768 14.7575 6.46061 14.6161 5.84648 14.3333L5.68759 14.2602C5.51308 14.1798 5.42582 14.1396 5.33332 14.1396C5.24083 14.1396 5.15357 14.1798 4.97905 14.2602L4.82017 14.3333C4.20604 14.6161 3.89897 14.7575 3.6947 14.6024C3.49042 14.4473 3.52422 14.0985 3.59183 13.4008L3.60932 13.2204C3.62853 13.0221 3.63814 12.923 3.60955 12.8311C3.58097 12.7392 3.51744 12.6649 3.39037 12.5163L3.27468 12.381C2.82752 11.8581 2.60394 11.5966 2.68197 11.3457C2.75999 11.0948 3.08795 11.0206 3.74387 10.8722L3.91356 10.8338C4.09995 10.7916 4.19315 10.7706 4.26797 10.7138C4.3428 10.657 4.3908 10.5709 4.48678 10.3987L4.57417 10.2419Z" stroke="white" stroke-width="1.5" stroke-linecap="round"/>
<path d="M6.66666 27.1848H9.6799C11.0277 27.1848 12.39 27.3253 13.7018 27.5955C16.0221 28.0735 18.4651 28.1314 20.8093 27.752C21.9651 27.5649 23.1014 27.2788 24.13 26.7824C25.0585 26.3342 26.1959 25.7025 26.9599 24.9949C27.7228 24.2883 28.5173 23.1319 29.0812 22.228C29.5648 21.4529 29.3309 20.5019 28.566 19.9244C27.7164 19.2829 26.4556 19.283 25.6062 19.9247L23.1966 21.7449C22.2627 22.4503 21.2426 23.0997 20.0274 23.2935C19.8813 23.3168 19.7282 23.3381 19.5685 23.3566M19.5685 23.3566C19.5204 23.3622 19.4717 23.3675 19.4224 23.3725M19.5685 23.3566C19.7629 23.3149 19.9559 23.1951 20.137 23.037C20.9946 22.2885 21.0488 21.027 20.3047 20.1912C20.1321 19.9972 19.93 19.8355 19.7054 19.7015C15.9756 17.4769 10.1725 19.1713 6.66666 21.6575M19.5685 23.3566C19.5198 23.367 19.4711 23.3725 19.4224 23.3725M19.4224 23.3725C18.7246 23.4442 17.9082 23.4627 17.0023 23.3772" stroke="white" stroke-width="1.5" stroke-linecap="round"/>
<rect x="2.66666" y="18.667" width="4" height="10.6667" rx="1.5" stroke="white" stroke-width="1.5" stroke-linecap="round"/>
</svg>
