<svg width="32" height="32" viewBox="0 0 32 32" fill="none" xmlns="http://www.w3.org/2000/svg">
<path fill-rule="evenodd" clip-rule="evenodd" d="M13.2581 4.33301H18.7419C21.1922 4.33299 23.1331 4.33297 24.652 4.53719C26.2153 4.74736 27.4805 5.19018 28.4783 6.188C29.4762 7.18582 29.919 8.45108 30.1292 10.0143C30.3334 11.5333 30.3334 13.4741 30.3333 15.9245V18.7416C30.3334 21.1919 30.3334 23.1328 30.1292 24.6517C29.919 26.2149 29.4762 27.4802 28.4783 28.478C27.4805 29.4758 26.2153 29.9187 24.652 30.1288C23.1331 30.333 21.1922 30.333 18.7419 30.333H13.2581C10.8078 30.333 8.86692 30.333 7.34797 30.1288C5.78474 29.9187 4.51947 29.4758 3.52166 28.478C2.52384 27.4802 2.08102 26.2149 1.87084 24.6517C1.66663 23.1328 1.66664 21.1919 1.66666 18.7416V15.9245C1.66664 13.4741 1.66663 11.5333 1.87084 10.0143C2.08102 8.45108 2.52384 7.18582 3.52166 6.188C4.51947 5.19018 5.78474 4.74736 7.34797 4.53719C8.86692 4.33297 10.8078 4.33299 13.2581 4.33301ZM7.61446 6.51935C6.27301 6.69971 5.50015 7.03793 4.93587 7.60221C4.37159 8.16649 4.03336 8.93935 3.85301 10.2808C3.66879 11.651 3.66667 13.4572 3.66667 15.9997V18.6663C3.66667 21.2088 3.66879 23.015 3.85301 24.3852C4.03336 25.7267 4.37159 26.4995 4.93587 27.0638C5.50015 27.6281 6.27301 27.9663 7.61446 28.1467C8.98468 28.3309 10.7909 28.333 13.3333 28.333H18.6667C21.2091 28.333 23.0153 28.3309 24.3855 28.1467C25.727 27.9663 26.4998 27.6281 27.0641 27.0638C27.6284 26.4995 27.9666 25.7267 28.147 24.3852C28.3312 23.015 28.3333 21.2088 28.3333 18.6663V15.9997C28.3333 13.4572 28.3312 11.651 28.147 10.2808C27.9666 8.93935 27.6284 8.16649 27.0641 7.60221C26.4998 7.03793 25.727 6.69971 24.3855 6.51935C23.0153 6.33513 21.2091 6.33301 18.6667 6.33301H13.3333C10.7909 6.33301 8.98468 6.33513 7.61446 6.51935Z" fill="white"/>
<path fill-rule="evenodd" clip-rule="evenodd" d="M9.33334 2.33301C9.88562 2.33301 10.3333 2.78072 10.3333 3.33301V5.33301C10.3333 5.88529 9.88562 6.33301 9.33334 6.33301C8.78105 6.33301 8.33334 5.88529 8.33334 5.33301V3.33301C8.33334 2.78072 8.78105 2.33301 9.33334 2.33301Z" fill="white"/>
<path fill-rule="evenodd" clip-rule="evenodd" d="M22.6667 2.33301C23.219 2.33301 23.6667 2.78072 23.6667 3.33301V5.33301C23.6667 5.88529 23.219 6.33301 22.6667 6.33301C22.1144 6.33301 21.6667 5.88529 21.6667 5.33301V3.33301C21.6667 2.78072 22.1144 2.33301 22.6667 2.33301Z" fill="white"/>
<path fill-rule="evenodd" clip-rule="evenodd" d="M2.33334 12C2.33334 11.4477 2.78105 11 3.33334 11H28.6667C29.219 11 29.6667 11.4477 29.6667 12C29.6667 12.5523 29.219 13 28.6667 13H3.33334C2.78105 13 2.33334 12.5523 2.33334 12Z" fill="white"/>
<path d="M24 22.6667C24 23.403 23.403 24 22.6667 24C21.9303 24 21.3333 23.403 21.3333 22.6667C21.3333 21.9303 21.9303 21.3333 22.6667 21.3333C23.403 21.3333 24 21.9303 24 22.6667Z" fill="white"/>
<path d="M24 17.3333C24 18.0697 23.403 18.6667 22.6667 18.6667C21.9303 18.6667 21.3333 18.0697 21.3333 17.3333C21.3333 16.597 21.9303 16 22.6667 16C23.403 16 24 16.597 24 17.3333Z" fill="white"/>
<path d="M17.3333 22.6667C17.3333 23.403 16.7364 24 16 24C15.2636 24 14.6667 23.403 14.6667 22.6667C14.6667 21.9303 15.2636 21.3333 16 21.3333C16.7364 21.3333 17.3333 21.9303 17.3333 22.6667Z" fill="white"/>
<path d="M17.3333 17.3333C17.3333 18.0697 16.7364 18.6667 16 18.6667C15.2636 18.6667 14.6667 18.0697 14.6667 17.3333C14.6667 16.597 15.2636 16 16 16C16.7364 16 17.3333 16.597 17.3333 17.3333Z" fill="white"/>
<path d="M10.6667 22.6667C10.6667 23.403 10.0697 24 9.33333 24C8.59695 24 8 23.403 8 22.6667C8 21.9303 8.59695 21.3333 9.33333 21.3333C10.0697 21.3333 10.6667 21.9303 10.6667 22.6667Z" fill="white"/>
<path d="M10.6667 17.3333C10.6667 18.0697 10.0697 18.6667 9.33333 18.6667C8.59695 18.6667 8 18.0697 8 17.3333C8 16.597 8.59695 16 9.33333 16C10.0697 16 10.6667 16.597 10.6667 17.3333Z" fill="white"/>
</svg>
