<svg width="209" height="60" viewBox="0 0 209 60" fill="none" xmlns="http://www.w3.org/2000/svg">
<path d="M13.662 1.6H21.862V59H13.662V1.6ZM0.46 1.6H8.66V59H0.46V1.6ZM19.32 44.24H3.74V35.876H19.32V44.24ZM35.0057 1.6V59H26.8057V1.6H35.0057ZM26.8057 59V53.588L43.0417 50.636L45.6657 59H26.8057ZM72.6053 42.518H80.4773V48.012C80.4773 50.308 80.2313 52.2213 79.7393 53.752C79.3019 55.228 78.6459 56.4033 77.7713 57.278C76.8966 58.098 75.8033 58.672 74.4913 59C73.2339 59.328 71.7853 59.492 70.1453 59.492C68.5053 59.492 67.0019 59.3553 65.6353 59.082C64.2686 58.8087 63.0933 58.262 62.1093 57.442C61.1799 56.622 60.4419 55.474 59.8953 53.998C59.4033 52.4673 59.1573 50.4993 59.1573 48.094V11.358C59.1573 7.75 60.0866 5.09866 61.9453 3.404C63.8586 1.65466 66.4826 0.779997 69.8173 0.779997C73.1519 0.779997 75.7486 1.65466 77.6073 3.404C79.5206 5.09866 80.4773 7.75 80.4773 11.358V21.034H72.6053V13.326C72.6053 11.9047 72.4413 10.702 72.1133 9.718C71.8399 8.67933 71.0746 8.16 69.8173 8.16C68.5599 8.16 67.7673 8.67933 67.4393 9.718C67.1659 10.7567 67.0293 11.9593 67.0293 13.326V46.126C67.0293 47.8753 67.1933 49.324 67.5213 50.472C67.8493 51.62 68.6419 52.194 69.8993 52.194C71.1566 52.194 71.9219 51.62 72.1953 50.472C72.4686 49.324 72.6053 47.8753 72.6053 46.126V42.518ZM106.425 48.012C106.425 50.472 106.151 52.4673 105.605 53.998C105.113 55.474 104.402 56.622 103.473 57.442C102.543 58.262 101.423 58.8087 100.111 59.082C98.8532 59.3553 97.4318 59.492 95.8465 59.492C94.2065 59.492 92.7032 59.3553 91.3365 59.082C90.0245 58.8087 88.8765 58.262 87.8925 57.442C86.9632 56.622 86.2525 55.474 85.7605 53.998C85.2685 52.4673 85.0225 50.472 85.0225 48.012V11.44C85.0225 7.832 85.9792 5.15333 87.8925 3.404C89.8058 1.6 92.4298 0.697998 95.7645 0.697998C99.0992 0.697998 101.696 1.6 103.555 3.404C105.413 5.15333 106.343 7.832 106.343 11.44L106.425 48.012ZM95.7645 8.078C94.5618 8.078 93.7965 8.62466 93.4685 9.718C93.1405 10.8113 92.9765 12.0413 92.9765 13.408V46.126C92.9765 47.8753 93.1132 49.324 93.3865 50.472C93.7145 51.62 94.5072 52.194 95.7645 52.194C97.0218 52.194 97.7872 51.62 98.0605 50.472C98.3338 49.324 98.4705 47.8753 98.4705 46.126V13.408C98.4705 12.6973 98.4432 12.0413 98.3885 11.44C98.3338 10.784 98.1972 10.21 97.9785 9.718C97.8145 9.226 97.5412 8.84333 97.1585 8.57C96.8305 8.242 96.3658 8.078 95.7645 8.078ZM124.734 1.6H132.688V48.012C132.688 50.472 132.442 52.4673 131.95 53.998C131.513 55.474 130.857 56.622 129.982 57.442C129.108 58.2073 128.014 58.7267 126.702 59C125.445 59.2733 123.996 59.41 122.356 59.41C120.716 59.41 119.213 59.2733 117.846 59C116.48 58.7813 115.304 58.262 114.32 57.442C113.391 56.622 112.653 55.474 112.106 53.998C111.614 52.4673 111.368 50.472 111.368 48.012V1.6H119.24V46.126C119.24 46.8367 119.268 47.5473 119.322 48.258C119.377 48.9687 119.486 49.6247 119.65 50.226C119.869 50.7727 120.17 51.2373 120.552 51.62C120.935 52.0027 121.427 52.194 122.028 52.194C122.63 52.194 123.094 52.0027 123.422 51.62C123.805 51.2373 124.078 50.7727 124.242 50.226C124.461 49.6247 124.598 48.9687 124.652 48.258C124.707 47.5473 124.734 46.8367 124.734 46.126V1.6ZM145.834 40.878V59H137.634V1.6H149.278C152.558 1.6 154.99 2.31066 156.576 3.732C158.161 5.15333 158.954 7.094 158.954 9.554L159.036 35.466C158.981 37.106 158.653 38.418 158.052 39.402C157.45 40.3313 156.685 41.0147 155.756 41.452C155.154 41.78 154.471 42.026 153.706 42.19C152.995 42.2993 152.339 42.3267 151.738 42.272C150.59 42.1627 149.688 41.9167 149.032 41.534C148.43 41.1513 147.966 40.7687 147.638 40.386C147.31 39.9487 147.064 39.566 146.9 39.238C146.736 38.8553 146.544 38.664 146.326 38.664H145.834V40.878ZM145.834 9.226V37.106C146.982 37.4887 147.884 37.6527 148.54 37.598C149.25 37.4887 149.77 37.27 150.098 36.942C150.48 36.5593 150.726 36.1493 150.836 35.712C150.945 35.22 151 34.7827 151 34.4V13.162C151 11.3033 150.617 10.0187 149.852 9.308C149.141 8.59733 147.802 8.57 145.834 9.226ZM152.886 37.434L158.954 59H149.934L146.408 38.664L152.886 37.434ZM171.36 16.524C171.36 18.5467 171.688 20.3233 172.344 21.854C173 23.33 173.82 24.6693 174.804 25.872C175.842 27.0747 176.936 28.2227 178.084 29.316C179.232 30.4093 180.298 31.5847 181.282 32.842C182.32 34.0447 183.168 35.4387 183.824 37.024C184.48 38.5547 184.808 40.4133 184.808 42.6V50.062C184.808 51.866 184.507 53.3967 183.906 54.654C183.304 55.9113 182.484 56.9227 181.446 57.688C180.407 58.4533 179.177 59 177.756 59.328C176.389 59.7107 174.886 59.8747 173.246 59.82C169.966 59.7653 167.396 59.0273 165.538 57.606C163.679 56.1847 162.75 53.67 162.75 50.062V41.534H170.54V47.274C170.54 47.9847 170.567 48.668 170.622 49.324C170.676 49.9253 170.786 50.472 170.95 50.964C171.168 51.456 171.469 51.8387 171.852 52.112C172.234 52.3853 172.726 52.522 173.328 52.522C173.929 52.522 174.421 52.3853 174.804 52.112C175.186 51.784 175.46 51.374 175.624 50.882C175.842 50.39 175.979 49.8433 176.034 49.242C176.088 48.586 176.116 47.93 176.116 47.274V44.814C176.116 42.7367 175.788 41.0147 175.132 39.648C174.53 38.2267 173.765 36.9693 172.836 35.876C171.906 34.728 170.895 33.662 169.802 32.678C168.763 31.6393 167.779 30.464 166.85 29.152C165.92 27.7853 165.128 26.2 164.472 24.396C163.87 22.592 163.57 20.3507 163.57 17.672V10.702C163.57 7.094 164.526 4.552 166.44 3.076C168.353 1.54533 170.95 0.834664 174.23 0.944C177.51 0.998666 180.079 1.73666 181.938 3.158C183.851 4.57933 184.808 7.094 184.808 10.702V20.378H176.936V13.49C176.936 12.0687 176.772 10.866 176.444 9.882C176.17 8.84333 175.405 8.324 174.148 8.324C172.89 8.324 172.098 8.84333 171.77 9.882C171.496 10.9207 171.36 12.1233 171.36 13.49V16.524ZM188.483 1.6H196.683V59H188.483V1.6ZM205.539 9.964L189.959 7.012L189.303 1.6H208.163L205.539 9.964ZM203.899 33.006H190.697V24.642H203.899V33.006ZM189.303 59L189.959 53.588L205.539 50.636L208.163 59H189.303Z" fill="white"/>
</svg>
