<svg width="143" height="41" viewBox="0 0 143 41" fill="none" xmlns="http://www.w3.org/2000/svg">
<path d="M9.696 0.799997H15.296V40H9.696V0.799997ZM0.68 0.799997H6.28V40H0.68V0.799997ZM13.56 29.92H2.92V24.208H13.56V29.92ZM24.2722 0.799997V40H18.6722V0.799997H24.2722ZM18.6722 40V36.304L29.7602 34.288L31.5522 40H18.6722ZM49.9499 28.744H55.3259V32.496C55.3259 34.064 55.1579 35.3707 54.8219 36.416C54.5233 37.424 54.0753 38.2267 53.4779 38.824C52.8806 39.384 52.1339 39.776 51.2379 40C50.3793 40.224 49.3899 40.336 48.2699 40.336C47.1499 40.336 46.1233 40.2427 45.1899 40.056C44.2566 39.8693 43.4539 39.496 42.7819 38.936C42.1473 38.376 41.6433 37.592 41.2699 36.584C40.9339 35.5387 40.7659 34.1947 40.7659 32.552V7.464C40.7659 5 41.4006 3.18933 42.6699 2.032C43.9766 0.837331 45.7686 0.239998 48.0459 0.239998C50.3233 0.239998 52.0966 0.837331 53.3659 2.032C54.6726 3.18933 55.3259 5 55.3259 7.464V14.072H49.9499V8.808C49.9499 7.83733 49.8379 7.016 49.6139 6.344C49.4273 5.63467 48.9046 5.28 48.0459 5.28C47.1873 5.28 46.6459 5.63467 46.4219 6.344C46.2353 7.05333 46.1419 7.87467 46.1419 8.808V31.208C46.1419 32.4027 46.2539 33.392 46.4779 34.176C46.7019 34.96 47.2433 35.352 48.1019 35.352C48.9606 35.352 49.4833 34.96 49.6699 34.176C49.8566 33.392 49.9499 32.4027 49.9499 31.208V28.744ZM73.046 32.496C73.046 34.176 72.8593 35.5387 72.486 36.584C72.15 37.592 71.6647 38.376 71.03 38.936C70.3953 39.496 69.63 39.8693 68.734 40.056C67.8753 40.2427 66.9047 40.336 65.822 40.336C64.702 40.336 63.6753 40.2427 62.742 40.056C61.846 39.8693 61.062 39.496 60.39 38.936C59.7553 38.376 59.27 37.592 58.934 36.584C58.598 35.5387 58.43 34.176 58.43 32.496V7.52C58.43 5.056 59.0833 3.22667 60.39 2.032C61.6967 0.799998 63.4887 0.183999 65.766 0.183999C68.0433 0.183999 69.8167 0.799998 71.086 2.032C72.3553 3.22667 72.99 5.056 72.99 7.52L73.046 32.496ZM65.766 5.224C64.9447 5.224 64.422 5.59733 64.198 6.344C63.974 7.09067 63.862 7.93066 63.862 8.864V31.208C63.862 32.4027 63.9553 33.392 64.142 34.176C64.366 34.96 64.9073 35.352 65.766 35.352C66.6247 35.352 67.1473 34.96 67.334 34.176C67.5207 33.392 67.614 32.4027 67.614 31.208V8.864C67.614 8.37867 67.5953 7.93067 67.558 7.52C67.5207 7.072 67.4273 6.68 67.278 6.344C67.166 6.008 66.9793 5.74667 66.718 5.56C66.494 5.336 66.1767 5.224 65.766 5.224ZM85.5502 0.799997H90.9822V32.496C90.9822 34.176 90.8142 35.5387 90.4782 36.584C90.1795 37.592 89.7315 38.376 89.1342 38.936C88.5369 39.4587 87.7902 39.8133 86.8942 40C86.0355 40.1867 85.0462 40.28 83.9262 40.28C82.8062 40.28 81.7795 40.1867 80.8462 40C79.9129 39.8507 79.1102 39.496 78.4382 38.936C77.8035 38.376 77.2995 37.592 76.9262 36.584C76.5902 35.5387 76.4222 34.176 76.4222 32.496V0.799997H81.7982V31.208C81.7982 31.6933 81.8169 32.1787 81.8542 32.664C81.8915 33.1493 81.9662 33.5973 82.0782 34.008C82.2275 34.3813 82.4329 34.6987 82.6942 34.96C82.9555 35.2213 83.2915 35.352 83.7022 35.352C84.1129 35.352 84.4302 35.2213 84.6542 34.96C84.9155 34.6987 85.1022 34.3813 85.2142 34.008C85.3635 33.5973 85.4569 33.1493 85.4942 32.664C85.5315 32.1787 85.5502 31.6933 85.5502 31.208V0.799997ZM99.9597 27.624V40H94.3597V0.799997H102.312C104.552 0.799997 106.213 1.28533 107.296 2.256C108.378 3.22667 108.92 4.552 108.92 6.232L108.976 23.928C108.938 25.048 108.714 25.944 108.304 26.616C107.893 27.2507 107.37 27.7173 106.736 28.016C106.325 28.24 105.858 28.408 105.336 28.52C104.85 28.5947 104.402 28.6133 103.992 28.576C103.208 28.5013 102.592 28.3333 102.144 28.072C101.733 27.8107 101.416 27.5493 101.192 27.288C100.968 26.9893 100.8 26.728 100.688 26.504C100.576 26.2427 100.445 26.112 100.296 26.112H99.9597V27.624ZM99.9597 6.008V25.048C100.744 25.3093 101.36 25.4213 101.808 25.384C102.293 25.3093 102.648 25.16 102.872 24.936C103.133 24.6747 103.301 24.3947 103.376 24.096C103.45 23.76 103.488 23.4613 103.488 23.2V8.696C103.488 7.42666 103.226 6.54933 102.704 6.064C102.218 5.57867 101.304 5.56 99.9597 6.008ZM104.776 25.272L108.92 40H102.76L100.352 26.112L104.776 25.272ZM117.392 10.992C117.392 12.3733 117.616 13.5867 118.064 14.632C118.512 15.64 119.072 16.5547 119.744 17.376C120.453 18.1973 121.2 18.9813 121.984 19.728C122.768 20.4747 123.496 21.2773 124.168 22.136C124.877 22.9573 125.456 23.9093 125.904 24.992C126.352 26.0373 126.576 27.3067 126.576 28.8V33.896C126.576 35.128 126.371 36.1733 125.96 37.032C125.549 37.8907 124.989 38.5813 124.28 39.104C123.571 39.6267 122.731 40 121.76 40.224C120.827 40.4853 119.8 40.5973 118.68 40.56C116.44 40.5227 114.685 40.0187 113.416 39.048C112.147 38.0773 111.512 36.36 111.512 33.896V28.072H116.832V31.992C116.832 32.4773 116.851 32.944 116.888 33.392C116.925 33.8027 117 34.176 117.112 34.512C117.261 34.848 117.467 35.1093 117.728 35.296C117.989 35.4827 118.325 35.576 118.736 35.576C119.147 35.576 119.483 35.4827 119.744 35.296C120.005 35.072 120.192 34.792 120.304 34.456C120.453 34.12 120.547 33.7467 120.584 33.336C120.621 32.888 120.64 32.44 120.64 31.992V30.312C120.64 28.8933 120.416 27.7173 119.968 26.784C119.557 25.8133 119.035 24.9547 118.4 24.208C117.765 23.424 117.075 22.696 116.328 22.024C115.619 21.3147 114.947 20.512 114.312 19.616C113.677 18.6827 113.136 17.6 112.688 16.368C112.277 15.136 112.072 13.6053 112.072 11.776V7.016C112.072 4.552 112.725 2.816 114.032 1.808C115.339 0.762664 117.112 0.277332 119.352 0.352C121.592 0.389333 123.347 0.893332 124.616 1.864C125.923 2.83466 126.576 4.552 126.576 7.016V13.624H121.2V8.92C121.2 7.94933 121.088 7.128 120.864 6.456C120.677 5.74666 120.155 5.392 119.296 5.392C118.437 5.392 117.896 5.74666 117.672 6.456C117.485 7.16533 117.392 7.98666 117.392 8.92V10.992ZM129.086 0.799997H134.686V40H129.086V0.799997ZM140.734 6.512L130.094 4.496L129.646 0.799997H142.526L140.734 6.512ZM139.614 22.248H130.598V16.536H139.614V22.248ZM129.646 40L130.094 36.304L140.734 34.288L142.526 40H129.646Z" fill="#191B23"/>
</svg>
